<?xml version="1.0" standalone="no"?>
<!DOCTYPE svg PUBLIC "-//W3C//DTD SVG 20010904//EN"
 "http://www.w3.org/TR/2001/REC-SVG-20010904/DTD/svg10.dtd">
<svg version="1.0" xmlns="http://www.w3.org/2000/svg"
 width="1280.000000pt" height="932.000000pt" viewBox="0 0 1280.000000 932.000000"
 preserveAspectRatio="xMidYMid meet">
<metadata>
Created by potrace 1.15, written by Peter Selinger 2001-2017
</metadata>
<g transform="translate(0.000000,932.000000) scale(0.100000,-0.100000)"
fill="#5f2db4" stroke="none">
<path d="M6315 9306 c-57 -26 -95 -85 -95 -146 0 -23 -6 -30 -33 -39 -35 -12
-76 -50 -96 -88 -17 -33 -13 -104 8 -143 20 -38 82 -80 119 -80 22 0 22 -2 22
-125 l0 -125 -123 0 -122 0 -18 50 c-30 85 -116 128 -200 101 -40 -13 -93 -68
-103 -105 -5 -20 -14 -25 -54 -30 -111 -15 -172 -130 -124 -232 20 -43 88 -84
136 -84 31 0 37 -4 43 -27 17 -67 79 -113 155 -113 76 0 142 55 155 130 l7 40
124 0 124 0 0 -213 0 -213 -49 -13 c-159 -40 -332 -168 -425 -313 -69 -108
-116 -262 -116 -380 l0 -53 -26 33 c-31 39 -93 76 -153 92 -105 28 -228 -22
-290 -117 l-34 -52 -44 39 c-84 73 -208 90 -304 41 -57 -30 -85 -56 -117 -110
l-25 -43 -18 35 c-96 186 -375 195 -479 15 -16 -29 -33 -69 -36 -89 l-6 -35
-57 57 c-46 46 -70 61 -116 74 -63 19 -132 15 -191 -10 -49 -20 -118 -89 -139
-137 -11 -24 -20 -44 -21 -46 -1 -1 -22 8 -47 22 -96 51 -210 40 -299 -27 -47
-36 -94 -112 -103 -169 -4 -21 -8 -38 -10 -38 -1 0 -24 10 -50 21 -128 57
-277 6 -346 -117 -33 -57 -40 -62 -58 -40 -6 8 -35 24 -63 36 -43 18 -65 22
-123 18 -136 -9 -226 -89 -256 -227 l-11 -51 -25 30 c-61 73 -186 109 -285 81
-103 -29 -184 -127 -195 -237 l-6 -55 -21 20 c-62 58 -198 81 -279 47 -89 -37
-158 -123 -173 -214 l-7 -43 -26 18 c-14 9 -50 22 -80 29 -157 37 -311 -69
-337 -234 -7 -44 -13 -49 -31 -31 -6 6 -37 17 -69 25 -129 30 -261 -35 -318
-156 -31 -68 -29 -170 7 -234 22 -39 23 -47 9 -41 -58 23 -129 27 -184 11
-248 -72 -280 -407 -49 -516 l52 -24 -40 -40 c-62 -65 -76 -100 -76 -191 0
-70 4 -87 30 -134 47 -86 134 -139 229 -140 42 -1 47 -3 41 -18 -53 -121 -55
-187 -10 -279 33 -67 96 -119 182 -149 2 -1 -7 -26 -18 -56 -29 -74 -23 -168
15 -234 16 -29 26 -63 26 -87 0 -36 31 -110 62 -149 18 -22 57 -41 72 -36 7 3
42 -2 77 -10 40 -9 94 -13 145 -11 l82 4 5 -43 c8 -70 54 -150 135 -232 95
-97 104 -114 85 -159 -26 -63 8 -141 78 -178 16 -8 29 -20 29 -27 0 -6 13 -39
29 -73 30 -64 74 -108 102 -101 12 3 21 -12 39 -67 52 -165 149 -314 297 -456
74 -73 99 -105 158 -210 39 -69 71 -128 73 -131 1 -4 -14 -9 -36 -12 -110 -18
-136 -167 -39 -228 28 -18 42 -19 124 -14 82 6 92 5 101 -12 12 -22 -20 -68
-47 -68 -19 0 -85 -127 -103 -200 -9 -36 -26 -65 -61 -102 -58 -64 -77 -106
-77 -175 0 -92 53 -169 157 -225 34 -19 66 -49 96 -88 25 -33 70 -84 100 -114
l56 -55 -40 -17 c-48 -22 -84 -90 -73 -136 9 -36 32 -71 55 -84 12 -6 1490 -9
4135 -9 3746 0 4119 1 4141 16 34 22 55 77 47 120 -7 39 -48 94 -70 94 -8 0
-14 2 -14 5 0 4 30 47 66 98 36 51 76 108 87 128 12 20 36 45 55 55 19 10 53
39 76 65 84 93 87 205 10 307 -76 99 -123 224 -124 329 0 22 -8 37 -27 52
l-28 20 98 -2 98 -2 35 37 c27 30 34 46 34 78 0 75 -48 129 -117 131 -73 2
-72 6 54 158 65 79 142 174 172 213 30 38 77 87 106 108 62 46 108 127 154
274 20 61 43 112 60 131 15 18 38 56 50 86 18 43 31 58 60 71 62 30 95 109 72
172 -8 20 -4 34 28 83 21 32 45 64 54 71 9 8 14 19 11 26 -3 7 13 35 36 62 46
56 85 131 95 187 l7 37 58 0 c31 0 82 5 111 11 30 6 71 12 91 13 46 2 77 29
112 101 14 30 49 75 76 101 85 79 112 196 70 306 -11 28 -19 52 -17 52 1 1 29
15 62 32 138 70 190 228 121 366 l-23 48 51 1 c97 1 183 53 231 140 26 47 30
64 30 134 0 91 -14 126 -76 191 l-40 40 52 24 c104 49 168 162 156 277 -16
155 -168 273 -317 245 -30 -6 -62 -13 -71 -17 -13 -5 -11 5 10 47 98 199 -85
432 -304 386 -27 -6 -62 -16 -76 -24 -26 -13 -27 -13 -33 28 -26 165 -180 271
-337 234 -30 -7 -66 -20 -80 -29 l-26 -18 -7 43 c-15 91 -84 177 -173 214 -81
34 -217 11 -279 -47 l-21 -20 -6 55 c-11 110 -92 208 -195 237 -99 28 -224 -8
-285 -81 l-25 -30 -11 51 c-30 136 -120 217 -253 227 -76 5 -138 -13 -186 -53
l-28 -23 -28 54 c-27 51 -72 96 -123 123 -63 33 -176 31 -246 -4 -17 -8 -31
-15 -33 -15 -1 0 -5 17 -9 38 -9 57 -56 133 -103 169 -89 67 -203 78 -299 27
-25 -14 -46 -23 -47 -22 -1 2 -10 22 -21 46 -21 48 -90 117 -139 137 -59 25
-128 29 -191 10 -46 -13 -70 -28 -116 -74 l-57 -57 -6 35 c-15 92 -104 186
-200 212 -119 32 -259 -29 -315 -138 l-18 -35 -25 43 c-49 82 -125 130 -219
137 -104 8 -216 -52 -264 -141 l-19 -35 -26 42 c-59 92 -155 142 -259 134 -58
-4 -128 -33 -167 -69 l-21 -20 -6 98 c-7 118 -27 193 -75 291 -93 187 -282
339 -484 389 l-68 16 0 208 0 209 130 0 130 0 0 -27 c0 -41 40 -103 80 -124
39 -21 110 -25 143 -8 38 20 76 61 87 94 10 29 16 33 57 38 49 5 85 27 117 71
31 41 29 130 -3 175 -26 36 -90 70 -132 71 -22 0 -31 9 -50 47 -34 67 -67 88
-139 88 -44 0 -66 -5 -87 -21 -37 -28 -73 -81 -73 -110 0 -24 0 -24 -130 -24
l-130 0 0 124 0 123 42 7 c29 5 52 18 79 44 82 83 57 211 -51 258 -32 14 -40
23 -40 43 -1 42 -35 106 -70 131 -40 28 -113 36 -155 16z m-611 -2858 c26
-232 33 -685 16 -938 -26 -373 -97 -727 -185 -927 l-23 -51 56 -38 c157 -103
386 -306 422 -373 12 -23 11 -24 -11 -17 -13 3 -52 9 -87 13 -82 8 -102 -8
-102 -82 0 -39 8 -68 33 -116 30 -59 37 -67 101 -99 77 -39 204 -157 237 -222
41 -79 11 -148 -63 -148 -70 0 -120 41 -235 195 -106 141 -182 198 -265 199
-36 1 -52 -4 -72 -23 -36 -34 -41 -75 -22 -202 9 -61 13 -115 10 -120 -3 -5
-20 -9 -37 -9 -111 -1 -219 -159 -203 -297 10 -89 34 -123 112 -163 95 -49
109 -72 109 -173 0 -45 -4 -108 -9 -140 -8 -49 -6 -60 9 -77 24 -27 88 -26
160 1 76 28 115 65 159 149 46 88 116 157 206 205 l71 36 21 -47 c19 -43 20
-61 15 -178 -4 -103 -11 -148 -31 -211 -60 -187 -186 -304 -353 -326 -192 -24
-389 38 -513 163 -99 100 -175 274 -187 428 -7 91 5 110 68 110 l40 0 -18 31
c-32 55 -79 89 -123 89 -22 0 -40 2 -40 4 0 2 8 24 19 48 57 133 72 380 33
530 -24 90 -60 164 -96 198 -21 19 -25 30 -21 51 6 28 -8 67 -29 81 -6 4 -25
8 -42 8 -47 0 -84 -53 -63 -91 8 -16 4 -27 -29 -65 -80 -90 -118 -247 -110
-455 5 -108 11 -150 32 -216 15 -45 31 -85 36 -88 21 -13 8 -25 -28 -25 -44 0
-82 -33 -101 -89 -16 -49 -14 -53 18 -46 43 9 95 -17 130 -66 17 -23 31 -47
31 -54 0 -27 -45 -147 -90 -240 -83 -173 -192 -288 -304 -325 -58 -19 -161 -8
-222 23 -133 67 -258 224 -353 442 -40 89 -40 93 -25 124 8 17 16 31 17 31 15
0 157 -45 180 -56 16 -9 70 -54 119 -100 97 -92 161 -131 200 -121 47 12 62
95 32 183 -18 55 -13 74 47 160 88 124 100 173 70 272 -27 91 -50 117 -136
158 -40 19 -85 47 -100 61 -26 27 -26 29 -20 118 6 82 5 94 -17 134 -47 87
-136 102 -220 38 -34 -26 -48 -49 -77 -122 -47 -117 -92 -193 -142 -244 -42
-42 -106 -68 -123 -51 -5 5 -9 51 -10 103 -1 107 2 114 75 153 54 30 74 63 89
149 6 30 15 81 20 112 14 80 12 111 -8 131 -74 74 -47 263 63 447 41 67 42 72
14 80 -12 4 -55 39 -96 78 -169 161 -331 469 -471 897 -70 211 -75 238 -70
334 6 108 42 187 125 269 108 107 234 175 453 248 389 128 941 193 1672 197
l257 2 5 -52z m2051 42 c781 -36 1339 -156 1625 -349 77 -53 159 -141 192
-209 26 -52 33 -80 36 -148 5 -95 -1 -123 -64 -319 -98 -300 -220 -571 -333
-739 -64 -94 -177 -215 -226 -241 -19 -11 -35 -22 -35 -26 0 -4 16 -32 35 -64
57 -96 97 -203 103 -277 6 -86 -2 -121 -27 -113 -28 9 -68 -14 -82 -46 -17
-42 -7 -125 24 -193 15 -32 59 -103 97 -156 83 -116 109 -170 110 -229 0 -58
-21 -81 -73 -81 -58 0 -93 43 -156 191 -65 155 -103 214 -160 250 -52 34 -99
37 -132 10 -23 -18 -24 -25 -24 -143 0 -154 -7 -167 -97 -193 -118 -33 -178
-128 -178 -284 0 -85 4 -95 82 -178 63 -67 67 -118 21 -259 -42 -131 -17 -168
98 -146 78 14 169 56 169 77 0 49 92 157 179 209 85 51 93 52 115 12 23 -44
17 -72 -39 -170 -89 -157 -265 -334 -393 -398 -173 -86 -334 -2 -462 241 -28
53 -64 114 -80 136 -59 82 -63 168 -10 229 28 31 33 33 80 28 62 -6 80 7 80
60 0 46 -33 83 -83 92 -30 6 -110 -5 -162 -20 -17 -6 -16 -3 6 18 40 38 76
106 101 193 19 68 23 104 23 235 0 209 -29 320 -109 408 -32 35 -35 43 -26 66
30 80 -80 132 -127 60 -14 -22 -15 -31 -5 -57 11 -28 9 -33 -24 -70 -79 -86
-118 -229 -118 -422 0 -135 16 -227 53 -310 l19 -42 -42 4 c-35 4 -47 1 -75
-23 -31 -26 -81 -112 -81 -140 0 -8 15 -10 43 -7 39 5 48 1 81 -28 l38 -33 -4
-105 c-7 -171 -69 -288 -205 -389 -134 -101 -272 -152 -414 -152 -233 0 -374
147 -424 444 -22 130 -20 247 5 296 11 22 24 40 28 40 39 0 211 -164 311 -295
29 -38 59 -74 67 -78 25 -14 108 -11 140 6 58 30 86 139 65 251 -14 77 -5 91
91 141 112 58 148 99 148 170 0 60 -27 106 -113 188 -117 113 -117 113 -117
237 0 86 -4 110 -19 134 -24 36 -69 66 -101 66 -70 -1 -184 -89 -246 -191 -44
-73 -111 -134 -190 -171 -82 -38 -127 -45 -159 -24 -19 12 -25 25 -25 52 0 80
47 136 206 244 164 112 222 191 211 287 -6 60 -39 92 -102 101 l-48 7 86 82
c88 83 228 183 321 230 28 14 52 26 54 28 1 1 -16 41 -38 89 -152 324 -220
758 -207 1321 6 226 31 567 43 587 7 11 392 10 649 -2z m-5925 -591 c0 -5 -7
-9 -15 -9 -8 0 -15 7 -15 15 0 9 6 12 15 9 8 -4 15 -10 15 -15z m9170 6 c0 -8
-7 -15 -15 -15 -26 0 -18 20 13 29 1 1 2 -6 2 -14z m-61 -290 c229 -114 479
-257 655 -373 72 -47 156 -98 186 -112 112 -54 162 -154 141 -283 -30 -180
-157 -403 -383 -673 l-77 -91 27 -54 c24 -47 27 -65 26 -144 -1 -84 -31 -242
-55 -287 -6 -12 -21 -18 -42 -18 -39 0 -72 -21 -92 -60 -23 -45 -18 -94 15
-157 27 -49 30 -65 29 -137 0 -45 -7 -97 -14 -116 l-13 -35 -1 51 c-2 93 -36
160 -97 189 -33 16 -38 16 -52 1 -9 -9 -16 -32 -16 -53 0 -21 -6 -43 -13 -48
-8 -6 -20 -28 -27 -50 -18 -53 -52 -71 -156 -85 -84 -10 -86 -11 -132 -61 -60
-64 -75 -111 -58 -191 17 -79 7 -150 -40 -289 -42 -120 -48 -167 -28 -187 32
-32 80 -7 198 102 88 81 140 109 140 76 0 -30 -49 -176 -84 -254 -92 -198
-216 -277 -336 -214 -93 50 -137 176 -128 366 6 127 23 161 91 181 41 13 47
18 47 42 0 30 -23 59 -46 59 -20 0 -18 4 23 57 86 112 127 252 121 414 -3 91
-7 112 -30 157 -25 48 -26 54 -12 81 25 49 -9 101 -66 101 -28 0 -70 -43 -70
-73 0 -17 -10 -27 -40 -41 -82 -36 -173 -179 -206 -324 l-16 -72 -40 48 c-41
49 -98 155 -98 183 0 9 9 36 20 60 39 86 18 194 -43 225 -60 32 -162 -23 -257
-137 -64 -76 -93 -101 -160 -135 -71 -35 -134 -43 -160 -19 -27 24 -25 39 11
104 44 79 96 131 132 131 15 0 40 6 56 14 40 21 194 186 215 231 25 52 16 112
-20 143 -25 22 -26 25 -13 49 8 15 42 55 76 89 57 57 113 91 213 131 23 9 33
35 94 224 377 1190 407 1286 404 1322 -2 20 0 37 4 37 5 0 93 -43 197 -95z
m-8879 52 c0 -18 76 -273 169 -567 331 -1046 302 -961 331 -973 136 -54 244
-139 297 -234 l23 -40 -43 -11 c-23 -6 -54 -13 -69 -17 -34 -7 -78 -69 -78
-109 0 -96 100 -192 344 -331 91 -52 181 -154 157 -178 -13 -13 -114 9 -168
37 -31 15 -81 59 -140 123 -102 111 -170 156 -239 157 -32 1 -49 -5 -68 -23
-31 -29 -32 -41 -6 -109 27 -71 25 -144 -6 -249 -35 -117 -39 -238 -8 -280 19
-26 37 -33 122 -49 38 -7 95 -68 136 -146 92 -173 141 -222 213 -216 48 4 59
26 74 140 6 45 15 99 21 118 11 36 44 80 61 80 5 0 27 -18 49 -40 l39 -39 -10
-143 c-17 -223 -56 -334 -135 -387 -32 -21 -51 -26 -102 -25 -99 1 -170 42
-314 180 -131 127 -190 205 -190 253 0 39 27 109 53 139 15 16 18 25 10 33
-13 13 -77 16 -120 6 l-31 -8 14 47 c40 132 -10 380 -104 516 -42 60 -112 123
-154 137 -30 10 -34 15 -31 36 6 30 -36 75 -70 75 -32 0 -64 -28 -72 -61 -5
-19 0 -34 17 -54 l24 -27 -26 -52 c-23 -46 -25 -63 -25 -171 0 -98 5 -134 23
-195 34 -108 89 -207 147 -266 l51 -51 -58 -12 c-32 -6 -58 -16 -58 -22 0 -6
8 -9 18 -8 9 1 25 1 34 0 18 -1 133 -103 148 -130 10 -20 -4 -161 -26 -251
-23 -93 -59 -163 -104 -204 -35 -32 -46 -36 -92 -36 -71 0 -125 29 -192 101
-77 83 -150 211 -216 380 l-20 49 32 0 c25 0 47 -16 127 -93 53 -52 107 -101
121 -110 49 -34 90 -13 90 46 0 13 -14 70 -32 128 -33 110 -41 220 -23 337 9
63 -9 118 -58 175 -29 34 -39 38 -113 51 -83 14 -142 38 -149 59 -2 7 -6 24
-9 39 -3 15 -13 33 -20 41 -8 8 -16 36 -18 63 -3 44 -6 49 -28 52 -38 4 -92
-37 -119 -91 -20 -40 -24 -64 -23 -133 0 -46 -2 -84 -4 -84 -2 0 -14 19 -26
43 -20 36 -23 57 -23 142 0 88 4 107 28 159 15 32 27 63 27 68 0 22 -65 100
-95 115 -32 15 -34 20 -48 102 -33 189 -29 285 18 369 l24 43 -93 113 c-222
269 -338 476 -367 653 -22 133 28 227 151 287 36 18 99 55 140 82 64 43 160
101 335 204 57 33 538 279 548 280 4 0 7 -15 7 -33z m2794 -2692 c-5 -12 -10
-13 -20 -4 -19 15 -18 19 6 19 13 0 18 -5 14 -15z m5463 -181 c-12 -12 -25 7
-19 28 l5 22 10 -22 c6 -12 7 -25 4 -28z m-588 -214 c32 -63 66 -137 76 -164
29 -77 97 -106 165 -71 50 26 90 134 90 240 0 32 7 51 25 73 30 35 87 62 93
44 2 -7 19 -12 38 -12 37 0 57 -22 73 -78 8 -26 4 -39 -27 -89 -138 -224 -309
-367 -452 -380 -72 -7 -100 0 -140 33 -74 63 -120 226 -120 433 0 116 2 126
23 149 l22 24 38 -44 c21 -23 64 -95 96 -158z"/>
</g>
</svg>
