<?xml version="1.0" encoding="utf-8"?>
<!-- Generator: Adobe Illustrator 24.0.3, SVG Export Plug-In . SVG Version: 6.00 Build 0)  -->
<svg version="1.1" xmlns="http://www.w3.org/2000/svg" xmlns:xlink="http://www.w3.org/1999/xlink" x="0px" y="0px"
	 viewBox="0 0 600 600" style="enable-background:new 0 0 600 600;" xml:space="preserve">
<style type="text/css">
	.st0{fill:#373150;}
	.st1{fill:#5F5A74;}
	.st2{fill:#AFADB9;}
	.st3{fill:#878397;}
	.st4{fill:#005434;}
	.st5{fill:#96DCBE;}
	.st6{fill:#A5A2B1;}
	.st7{fill:#004D34;}
	.st8{fill:#7D798E;}
	.st9{fill:#D7D6DC;}
	.st10{fill:#8F0028;}
	.st11{display:none;}
	.st12{display:inline;}
	.st13{fill:none;stroke:#FF00FF;stroke-width:2;stroke-miterlimit:10;}
</style>
<g id="Dark_background">
	<rect x="-10" y="-10" class="st0" width="620" height="620"/>
</g>
<g id="Layer_5">
</g>
<g id="Shadows">
</g>
<g id="Pattern">
	<g>
		<polygon class="st1" points="62.5,59.5 62.5,57.5 60.5,57.5 60.5,58.8 59.5,58.8 59.5,57.5 57.5,57.5 57.5,59.5 58.8,59.5 
			58.8,60.5 57.5,60.5 57.5,62.5 59.5,62.5 59.5,61.2 60.5,61.2 60.5,62.5 62.5,62.5 62.5,60.5 61.2,60.5 61.2,59.5 		"/>
		<polygon class="st1" points="102.5,59.5 102.5,57.5 100.5,57.5 100.5,58.8 99.5,58.8 99.5,57.5 97.5,57.5 97.5,59.5 98.8,59.5 
			98.8,60.5 97.5,60.5 97.5,62.5 99.5,62.5 99.5,61.2 100.5,61.2 100.5,62.5 102.5,62.5 102.5,60.5 101.2,60.5 101.2,59.5 		"/>
		<polygon class="st1" points="142.5,59.5 142.5,57.5 140.5,57.5 140.5,58.8 139.5,58.8 139.5,57.5 137.5,57.5 137.5,59.5 
			138.8,59.5 138.8,60.5 137.5,60.5 137.5,62.5 139.5,62.5 139.5,61.2 140.5,61.2 140.5,62.5 142.5,62.5 142.5,60.5 141.2,60.5 
			141.2,59.5 		"/>
		<polygon class="st1" points="182.5,59.5 182.5,57.5 180.5,57.5 180.5,58.8 179.5,58.8 179.5,57.5 177.5,57.5 177.5,59.5 
			178.8,59.5 178.8,60.5 177.5,60.5 177.5,62.5 179.5,62.5 179.5,61.2 180.5,61.2 180.5,62.5 182.5,62.5 182.5,60.5 181.2,60.5 
			181.2,59.5 		"/>
		<polygon class="st1" points="222.5,59.5 222.5,57.5 220.5,57.5 220.5,58.8 219.5,58.8 219.5,57.5 217.5,57.5 217.5,59.5 
			218.8,59.5 218.8,60.5 217.5,60.5 217.5,62.5 219.5,62.5 219.5,61.2 220.5,61.2 220.5,62.5 222.5,62.5 222.5,60.5 221.2,60.5 
			221.2,59.5 		"/>
		<polygon class="st1" points="82.5,79.5 82.5,77.5 80.5,77.5 80.5,78.8 79.5,78.8 79.5,77.5 77.5,77.5 77.5,79.5 78.8,79.5 
			78.8,80.5 77.5,80.5 77.5,82.5 79.5,82.5 79.5,81.2 80.5,81.2 80.5,82.5 82.5,82.5 82.5,80.5 81.2,80.5 81.2,79.5 		"/>
		<polygon class="st1" points="122.5,79.5 122.5,77.5 120.5,77.5 120.5,78.8 119.5,78.8 119.5,77.5 117.5,77.5 117.5,79.5 
			118.8,79.5 118.8,80.5 117.5,80.5 117.5,82.5 119.5,82.5 119.5,81.2 120.5,81.2 120.5,82.5 122.5,82.5 122.5,80.5 121.2,80.5 
			121.2,79.5 		"/>
		<polygon class="st1" points="162.5,79.5 162.5,77.5 160.5,77.5 160.5,78.8 159.5,78.8 159.5,77.5 157.5,77.5 157.5,79.5 
			158.8,79.5 158.8,80.5 157.5,80.5 157.5,82.5 159.5,82.5 159.5,81.2 160.5,81.2 160.5,82.5 162.5,82.5 162.5,80.5 161.2,80.5 
			161.2,79.5 		"/>
		<polygon class="st1" points="202.5,79.5 202.5,77.5 200.5,77.5 200.5,78.8 199.5,78.8 199.5,77.5 197.5,77.5 197.5,79.5 
			198.8,79.5 198.8,80.5 197.5,80.5 197.5,82.5 199.5,82.5 199.5,81.2 200.5,81.2 200.5,82.5 202.5,82.5 202.5,80.5 201.2,80.5 
			201.2,79.5 		"/>
		<polygon class="st1" points="242.5,79.5 242.5,77.5 240.5,77.5 240.5,78.8 239.5,78.8 239.5,77.5 237.5,77.5 237.5,79.5 
			238.8,79.5 238.8,80.5 237.5,80.5 237.5,82.5 239.5,82.5 239.5,81.2 240.5,81.2 240.5,82.5 242.5,82.5 242.5,80.5 241.2,80.5 
			241.2,79.5 		"/>
		<polygon class="st1" points="82.5,119.5 82.5,117.5 80.5,117.5 80.5,118.8 79.5,118.8 79.5,117.5 77.5,117.5 77.5,119.5 
			78.8,119.5 78.8,120.5 77.5,120.5 77.5,122.5 79.5,122.5 79.5,121.2 80.5,121.2 80.5,122.5 82.5,122.5 82.5,120.5 81.2,120.5 
			81.2,119.5 		"/>
		<polygon class="st1" points="122.5,119.5 122.5,117.5 120.5,117.5 120.5,118.8 119.5,118.8 119.5,117.5 117.5,117.5 117.5,119.5 
			118.8,119.5 118.8,120.5 117.5,120.5 117.5,122.5 119.5,122.5 119.5,121.2 120.5,121.2 120.5,122.5 122.5,122.5 122.5,120.5 
			121.2,120.5 121.2,119.5 		"/>
		<polygon class="st1" points="82.5,159.5 82.5,157.5 80.5,157.5 80.5,158.8 79.5,158.8 79.5,157.5 77.5,157.5 77.5,159.5 
			78.8,159.5 78.8,160.5 77.5,160.5 77.5,162.5 79.5,162.5 79.5,161.2 80.5,161.2 80.5,162.5 82.5,162.5 82.5,160.5 81.2,160.5 
			81.2,159.5 		"/>
		<polygon class="st1" points="122.5,159.5 122.5,157.5 120.5,157.5 120.5,158.8 119.5,158.8 119.5,157.5 117.5,157.5 117.5,159.5 
			118.8,159.5 118.8,160.5 117.5,160.5 117.5,162.5 119.5,162.5 119.5,161.2 120.5,161.2 120.5,162.5 122.5,162.5 122.5,160.5 
			121.2,160.5 121.2,159.5 		"/>
		<polygon class="st1" points="82.5,199.5 82.5,197.5 80.5,197.5 80.5,198.8 79.5,198.8 79.5,197.5 77.5,197.5 77.5,199.5 
			78.8,199.5 78.8,200.5 77.5,200.5 77.5,202.5 79.5,202.5 79.5,201.2 80.5,201.2 80.5,202.5 82.5,202.5 82.5,200.5 81.2,200.5 
			81.2,199.5 		"/>
		<polygon class="st1" points="122.5,199.5 122.5,197.5 120.5,197.5 120.5,198.8 119.5,198.8 119.5,197.5 117.5,197.5 117.5,199.5 
			118.8,199.5 118.8,200.5 117.5,200.5 117.5,202.5 119.5,202.5 119.5,201.2 120.5,201.2 120.5,202.5 122.5,202.5 122.5,200.5 
			121.2,200.5 121.2,199.5 		"/>
		<polygon class="st1" points="82.5,239.5 82.5,237.5 80.5,237.5 80.5,238.8 79.5,238.8 79.5,237.5 77.5,237.5 77.5,239.5 
			78.8,239.5 78.8,240.5 77.5,240.5 77.5,242.5 79.5,242.5 79.5,241.2 80.5,241.2 80.5,242.5 82.5,242.5 82.5,240.5 81.2,240.5 
			81.2,239.5 		"/>
		<polygon class="st1" points="122.5,239.5 122.5,237.5 120.5,237.5 120.5,238.8 119.5,238.8 119.5,237.5 117.5,237.5 117.5,239.5 
			118.8,239.5 118.8,240.5 117.5,240.5 117.5,242.5 119.5,242.5 119.5,241.2 120.5,241.2 120.5,242.5 122.5,242.5 122.5,240.5 
			121.2,240.5 121.2,239.5 		"/>
		<polygon class="st1" points="82.5,279.5 82.5,277.5 80.5,277.5 80.5,278.8 79.5,278.8 79.5,277.5 77.5,277.5 77.5,279.5 
			78.8,279.5 78.8,280.5 77.5,280.5 77.5,282.5 79.5,282.5 79.5,281.2 80.5,281.2 80.5,282.5 82.5,282.5 82.5,280.5 81.2,280.5 
			81.2,279.5 		"/>
		<polygon class="st1" points="122.5,279.5 122.5,277.5 120.5,277.5 120.5,278.8 119.5,278.8 119.5,277.5 117.5,277.5 117.5,279.5 
			118.8,279.5 118.8,280.5 117.5,280.5 117.5,282.5 119.5,282.5 119.5,281.2 120.5,281.2 120.5,282.5 122.5,282.5 122.5,280.5 
			121.2,280.5 121.2,279.5 		"/>
		<polygon class="st1" points="82.5,319.5 82.5,317.5 80.5,317.5 80.5,318.8 79.5,318.8 79.5,317.5 77.5,317.5 77.5,319.5 
			78.8,319.5 78.8,320.5 77.5,320.5 77.5,322.5 79.5,322.5 79.5,321.2 80.5,321.2 80.5,322.5 82.5,322.5 82.5,320.5 81.2,320.5 
			81.2,319.5 		"/>
		<polygon class="st1" points="122.5,319.5 122.5,317.5 120.5,317.5 120.5,318.8 119.5,318.8 119.5,317.5 117.5,317.5 117.5,319.5 
			118.8,319.5 118.8,320.5 117.5,320.5 117.5,322.5 119.5,322.5 119.5,321.2 120.5,321.2 120.5,322.5 122.5,322.5 122.5,320.5 
			121.2,320.5 121.2,319.5 		"/>
		<polygon class="st1" points="82.5,359.5 82.5,357.5 80.5,357.5 80.5,358.8 79.5,358.8 79.5,357.5 77.5,357.5 77.5,359.5 
			78.8,359.5 78.8,360.5 77.5,360.5 77.5,362.5 79.5,362.5 79.5,361.2 80.5,361.2 80.5,362.5 82.5,362.5 82.5,360.5 81.2,360.5 
			81.2,359.5 		"/>
		<polygon class="st1" points="122.5,359.5 122.5,357.5 120.5,357.5 120.5,358.8 119.5,358.8 119.5,357.5 117.5,357.5 117.5,359.5 
			118.8,359.5 118.8,360.5 117.5,360.5 117.5,362.5 119.5,362.5 119.5,361.2 120.5,361.2 120.5,362.5 122.5,362.5 122.5,360.5 
			121.2,360.5 121.2,359.5 		"/>
		<polygon class="st1" points="82.5,399.5 82.5,397.5 80.5,397.5 80.5,398.8 79.5,398.8 79.5,397.5 77.5,397.5 77.5,399.5 
			78.8,399.5 78.8,400.5 77.5,400.5 77.5,402.5 79.5,402.5 79.5,401.2 80.5,401.2 80.5,402.5 82.5,402.5 82.5,400.5 81.2,400.5 
			81.2,399.5 		"/>
		<polygon class="st1" points="122.5,399.5 122.5,397.5 120.5,397.5 120.5,398.8 119.5,398.8 119.5,397.5 117.5,397.5 117.5,399.5 
			118.8,399.5 118.8,400.5 117.5,400.5 117.5,402.5 119.5,402.5 119.5,401.2 120.5,401.2 120.5,402.5 122.5,402.5 122.5,400.5 
			121.2,400.5 121.2,399.5 		"/>
		<polygon class="st1" points="122.5,439.5 122.5,437.5 120.5,437.5 120.5,438.8 119.5,438.8 119.5,437.5 117.5,437.5 117.5,439.5 
			118.8,439.5 118.8,440.5 117.5,440.5 117.5,442.5 119.5,442.5 119.5,441.2 120.5,441.2 120.5,442.5 122.5,442.5 122.5,440.5 
			121.2,440.5 121.2,439.5 		"/>
		<polygon class="st1" points="62.5,99.5 62.5,97.5 60.5,97.5 60.5,98.8 59.5,98.8 59.5,97.5 57.5,97.5 57.5,99.5 58.8,99.5 
			58.8,100.5 57.5,100.5 57.5,102.5 59.5,102.5 59.5,101.2 60.5,101.2 60.5,102.5 62.5,102.5 62.5,100.5 61.2,100.5 61.2,99.5 		"/>
		<polygon class="st1" points="102.5,99.5 102.5,97.5 100.5,97.5 100.5,98.8 99.5,98.8 99.5,97.5 97.5,97.5 97.5,99.5 98.8,99.5 
			98.8,100.5 97.5,100.5 97.5,102.5 99.5,102.5 99.5,101.2 100.5,101.2 100.5,102.5 102.5,102.5 102.5,100.5 101.2,100.5 
			101.2,99.5 		"/>
		<polygon class="st1" points="142.5,99.5 142.5,97.5 140.5,97.5 140.5,98.8 139.5,98.8 139.5,97.5 137.5,97.5 137.5,99.5 
			138.8,99.5 138.8,100.5 137.5,100.5 137.5,102.5 139.5,102.5 139.5,101.2 140.5,101.2 140.5,102.5 142.5,102.5 142.5,100.5 
			141.2,100.5 141.2,99.5 		"/>
		<polygon class="st1" points="182.5,99.5 182.5,97.5 180.5,97.5 180.5,98.8 179.5,98.8 179.5,97.5 177.5,97.5 177.5,99.5 
			178.8,99.5 178.8,100.5 177.5,100.5 177.5,102.5 179.5,102.5 179.5,101.2 180.5,101.2 180.5,102.5 182.5,102.5 182.5,100.5 
			181.2,100.5 181.2,99.5 		"/>
		<polygon class="st1" points="222.5,99.5 222.5,97.5 220.5,97.5 220.5,98.8 219.5,98.8 219.5,97.5 217.5,97.5 217.5,99.5 
			218.8,99.5 218.8,100.5 217.5,100.5 217.5,102.5 219.5,102.5 219.5,101.2 220.5,101.2 220.5,102.5 222.5,102.5 222.5,100.5 
			221.2,100.5 221.2,99.5 		"/>
		<polygon class="st1" points="262.5,99.5 262.5,97.5 260.5,97.5 260.5,98.8 259.5,98.8 259.5,97.5 257.5,97.5 257.5,99.5 
			258.8,99.5 258.8,100.5 257.5,100.5 257.5,102.5 259.5,102.5 259.5,101.2 260.5,101.2 260.5,102.5 262.5,102.5 262.5,100.5 
			261.2,100.5 261.2,99.5 		"/>
		<polygon class="st1" points="62.5,139.5 62.5,137.5 60.5,137.5 60.5,138.8 59.5,138.8 59.5,137.5 57.5,137.5 57.5,139.5 
			58.8,139.5 58.8,140.5 57.5,140.5 57.5,142.5 59.5,142.5 59.5,141.2 60.5,141.2 60.5,142.5 62.5,142.5 62.5,140.5 61.2,140.5 
			61.2,139.5 		"/>
		<polygon class="st1" points="102.5,139.5 102.5,137.5 100.5,137.5 100.5,138.8 99.5,138.8 99.5,137.5 97.5,137.5 97.5,139.5 
			98.8,139.5 98.8,140.5 97.5,140.5 97.5,142.5 99.5,142.5 99.5,141.2 100.5,141.2 100.5,142.5 102.5,142.5 102.5,140.5 
			101.2,140.5 101.2,139.5 		"/>
		<polygon class="st1" points="142.5,139.5 142.5,137.5 140.5,137.5 140.5,138.8 139.5,138.8 139.5,137.5 137.5,137.5 137.5,139.5 
			138.8,139.5 138.8,140.5 137.5,140.5 137.5,142.5 139.5,142.5 139.5,141.2 140.5,141.2 140.5,142.5 142.5,142.5 142.5,140.5 
			141.2,140.5 141.2,139.5 		"/>
		<polygon class="st1" points="462.5,139.5 462.5,137.5 460.5,137.5 460.5,138.8 459.5,138.8 459.5,137.5 457.5,137.5 457.5,139.5 
			458.8,139.5 458.8,140.5 457.5,140.5 457.5,142.5 459.5,142.5 459.5,141.2 460.5,141.2 460.5,142.5 462.5,142.5 462.5,140.5 
			461.2,140.5 461.2,139.5 		"/>
		<polygon class="st1" points="62.5,179.5 62.5,177.5 60.5,177.5 60.5,178.8 59.5,178.8 59.5,177.5 57.5,177.5 57.5,179.5 
			58.8,179.5 58.8,180.5 57.5,180.5 57.5,182.5 59.5,182.5 59.5,181.2 60.5,181.2 60.5,182.5 62.5,182.5 62.5,180.5 61.2,180.5 
			61.2,179.5 		"/>
		<polygon class="st1" points="102.5,179.5 102.5,177.5 100.5,177.5 100.5,178.8 99.5,178.8 99.5,177.5 97.5,177.5 97.5,179.5 
			98.8,179.5 98.8,180.5 97.5,180.5 97.5,182.5 99.5,182.5 99.5,181.2 100.5,181.2 100.5,182.5 102.5,182.5 102.5,180.5 
			101.2,180.5 101.2,179.5 		"/>
		<polygon class="st1" points="142.5,179.5 142.5,177.5 140.5,177.5 140.5,178.8 139.5,178.8 139.5,177.5 137.5,177.5 137.5,179.5 
			138.8,179.5 138.8,180.5 137.5,180.5 137.5,182.5 139.5,182.5 139.5,181.2 140.5,181.2 140.5,182.5 142.5,182.5 142.5,180.5 
			141.2,180.5 141.2,179.5 		"/>
		<polygon class="st1" points="462.5,179.5 462.5,177.5 460.5,177.5 460.5,178.8 459.5,178.8 459.5,177.5 457.5,177.5 457.5,179.5 
			458.8,179.5 458.8,180.5 457.5,180.5 457.5,182.5 459.5,182.5 459.5,181.2 460.5,181.2 460.5,182.5 462.5,182.5 462.5,180.5 
			461.2,180.5 461.2,179.5 		"/>
		<polygon class="st1" points="62.5,219.5 62.5,217.5 60.5,217.5 60.5,218.8 59.5,218.8 59.5,217.5 57.5,217.5 57.5,219.5 
			58.8,219.5 58.8,220.5 57.5,220.5 57.5,222.5 59.5,222.5 59.5,221.2 60.5,221.2 60.5,222.5 62.5,222.5 62.5,220.5 61.2,220.5 
			61.2,219.5 		"/>
		<polygon class="st1" points="102.5,219.5 102.5,217.5 100.5,217.5 100.5,218.8 99.5,218.8 99.5,217.5 97.5,217.5 97.5,219.5 
			98.8,219.5 98.8,220.5 97.5,220.5 97.5,222.5 99.5,222.5 99.5,221.2 100.5,221.2 100.5,222.5 102.5,222.5 102.5,220.5 
			101.2,220.5 101.2,219.5 		"/>
		<polygon class="st1" points="142.5,219.5 142.5,217.5 140.5,217.5 140.5,218.8 139.5,218.8 139.5,217.5 137.5,217.5 137.5,219.5 
			138.8,219.5 138.8,220.5 137.5,220.5 137.5,222.5 139.5,222.5 139.5,221.2 140.5,221.2 140.5,222.5 142.5,222.5 142.5,220.5 
			141.2,220.5 141.2,219.5 		"/>
		<polygon class="st1" points="462.5,219.5 462.5,217.5 460.5,217.5 460.5,218.8 459.5,218.8 459.5,217.5 457.5,217.5 457.5,219.5 
			458.8,219.5 458.8,220.5 457.5,220.5 457.5,222.5 459.5,222.5 459.5,221.2 460.5,221.2 460.5,222.5 462.5,222.5 462.5,220.5 
			461.2,220.5 461.2,219.5 		"/>
		<polygon class="st1" points="62.5,259.5 62.5,257.5 60.5,257.5 60.5,258.8 59.5,258.8 59.5,257.5 57.5,257.5 57.5,259.5 
			58.8,259.5 58.8,260.5 57.5,260.5 57.5,262.5 59.5,262.5 59.5,261.2 60.5,261.2 60.5,262.5 62.5,262.5 62.5,260.5 61.2,260.5 
			61.2,259.5 		"/>
		<polygon class="st1" points="102.5,259.5 102.5,257.5 100.5,257.5 100.5,258.8 99.5,258.8 99.5,257.5 97.5,257.5 97.5,259.5 
			98.8,259.5 98.8,260.5 97.5,260.5 97.5,262.5 99.5,262.5 99.5,261.2 100.5,261.2 100.5,262.5 102.5,262.5 102.5,260.5 
			101.2,260.5 101.2,259.5 		"/>
		<polygon class="st1" points="142.5,259.5 142.5,257.5 140.5,257.5 140.5,258.8 139.5,258.8 139.5,257.5 137.5,257.5 137.5,259.5 
			138.8,259.5 138.8,260.5 137.5,260.5 137.5,262.5 139.5,262.5 139.5,261.2 140.5,261.2 140.5,262.5 142.5,262.5 142.5,260.5 
			141.2,260.5 141.2,259.5 		"/>
		<polygon class="st1" points="462.5,259.5 462.5,257.5 460.5,257.5 460.5,258.8 459.5,258.8 459.5,257.5 457.5,257.5 457.5,259.5 
			458.8,259.5 458.8,260.5 457.5,260.5 457.5,262.5 459.5,262.5 459.5,261.2 460.5,261.2 460.5,262.5 462.5,262.5 462.5,260.5 
			461.2,260.5 461.2,259.5 		"/>
		<polygon class="st1" points="62.5,299.5 62.5,297.5 60.5,297.5 60.5,298.8 59.5,298.8 59.5,297.5 57.5,297.5 57.5,299.5 
			58.8,299.5 58.8,300.5 57.5,300.5 57.5,302.5 59.5,302.5 59.5,301.2 60.5,301.2 60.5,302.5 62.5,302.5 62.5,300.5 61.2,300.5 
			61.2,299.5 		"/>
		<polygon class="st1" points="102.5,299.5 102.5,297.5 100.5,297.5 100.5,298.8 99.5,298.8 99.5,297.5 97.5,297.5 97.5,299.5 
			98.8,299.5 98.8,300.5 97.5,300.5 97.5,302.5 99.5,302.5 99.5,301.2 100.5,301.2 100.5,302.5 102.5,302.5 102.5,300.5 
			101.2,300.5 101.2,299.5 		"/>
		<polygon class="st1" points="142.5,299.5 142.5,297.5 140.5,297.5 140.5,298.8 139.5,298.8 139.5,297.5 137.5,297.5 137.5,299.5 
			138.8,299.5 138.8,300.5 137.5,300.5 137.5,302.5 139.5,302.5 139.5,301.2 140.5,301.2 140.5,302.5 142.5,302.5 142.5,300.5 
			141.2,300.5 141.2,299.5 		"/>
		<polygon class="st1" points="462.5,299.5 462.5,297.5 460.5,297.5 460.5,298.8 459.5,298.8 459.5,297.5 457.5,297.5 457.5,299.5 
			458.8,299.5 458.8,300.5 457.5,300.5 457.5,302.5 459.5,302.5 459.5,301.2 460.5,301.2 460.5,302.5 462.5,302.5 462.5,300.5 
			461.2,300.5 461.2,299.5 		"/>
		<polygon class="st1" points="62.5,339.5 62.5,337.5 60.5,337.5 60.5,338.8 59.5,338.8 59.5,337.5 57.5,337.5 57.5,339.5 
			58.8,339.5 58.8,340.5 57.5,340.5 57.5,342.5 59.5,342.5 59.5,341.2 60.5,341.2 60.5,342.5 62.5,342.5 62.5,340.5 61.2,340.5 
			61.2,339.5 		"/>
		<polygon class="st1" points="102.5,339.5 102.5,337.5 100.5,337.5 100.5,338.8 99.5,338.8 99.5,337.5 97.5,337.5 97.5,339.5 
			98.8,339.5 98.8,340.5 97.5,340.5 97.5,342.5 99.5,342.5 99.5,341.2 100.5,341.2 100.5,342.5 102.5,342.5 102.5,340.5 
			101.2,340.5 101.2,339.5 		"/>
		<polygon class="st1" points="142.5,339.5 142.5,337.5 140.5,337.5 140.5,338.8 139.5,338.8 139.5,337.5 137.5,337.5 137.5,339.5 
			138.8,339.5 138.8,340.5 137.5,340.5 137.5,342.5 139.5,342.5 139.5,341.2 140.5,341.2 140.5,342.5 142.5,342.5 142.5,340.5 
			141.2,340.5 141.2,339.5 		"/>
		<polygon class="st1" points="462.5,339.5 462.5,337.5 460.5,337.5 460.5,338.8 459.5,338.8 459.5,337.5 457.5,337.5 457.5,339.5 
			458.8,339.5 458.8,340.5 457.5,340.5 457.5,342.5 459.5,342.5 459.5,341.2 460.5,341.2 460.5,342.5 462.5,342.5 462.5,340.5 
			461.2,340.5 461.2,339.5 		"/>
		<polygon class="st1" points="62.5,379.5 62.5,377.5 60.5,377.5 60.5,378.8 59.5,378.8 59.5,377.5 57.5,377.5 57.5,379.5 
			58.8,379.5 58.8,380.5 57.5,380.5 57.5,382.5 59.5,382.5 59.5,381.2 60.5,381.2 60.5,382.5 62.5,382.5 62.5,380.5 61.2,380.5 
			61.2,379.5 		"/>
		<polygon class="st1" points="102.5,379.5 102.5,377.5 100.5,377.5 100.5,378.8 99.5,378.8 99.5,377.5 97.5,377.5 97.5,379.5 
			98.8,379.5 98.8,380.5 97.5,380.5 97.5,382.5 99.5,382.5 99.5,381.2 100.5,381.2 100.5,382.5 102.5,382.5 102.5,380.5 
			101.2,380.5 101.2,379.5 		"/>
		<polygon class="st1" points="142.5,379.5 142.5,377.5 140.5,377.5 140.5,378.8 139.5,378.8 139.5,377.5 137.5,377.5 137.5,379.5 
			138.8,379.5 138.8,380.5 137.5,380.5 137.5,382.5 139.5,382.5 139.5,381.2 140.5,381.2 140.5,382.5 142.5,382.5 142.5,380.5 
			141.2,380.5 141.2,379.5 		"/>
		<polygon class="st1" points="462.5,379.5 462.5,377.5 460.5,377.5 460.5,378.8 459.5,378.8 459.5,377.5 457.5,377.5 457.5,379.5 
			458.8,379.5 458.8,380.5 457.5,380.5 457.5,382.5 459.5,382.5 459.5,381.2 460.5,381.2 460.5,382.5 462.5,382.5 462.5,380.5 
			461.2,380.5 461.2,379.5 		"/>
		<polygon class="st1" points="102.5,419.5 102.5,417.5 100.5,417.5 100.5,418.8 99.5,418.8 99.5,417.5 97.5,417.5 97.5,419.5 
			98.8,419.5 98.8,420.5 97.5,420.5 97.5,422.5 99.5,422.5 99.5,421.2 100.5,421.2 100.5,422.5 102.5,422.5 102.5,420.5 
			101.2,420.5 101.2,419.5 		"/>
		<polygon class="st1" points="142.5,419.5 142.5,417.5 140.5,417.5 140.5,418.8 139.5,418.8 139.5,417.5 137.5,417.5 137.5,419.5 
			138.8,419.5 138.8,420.5 137.5,420.5 137.5,422.5 139.5,422.5 139.5,421.2 140.5,421.2 140.5,422.5 142.5,422.5 142.5,420.5 
			141.2,420.5 141.2,419.5 		"/>
		<polygon class="st1" points="462.5,419.5 462.5,417.5 460.5,417.5 460.5,418.8 459.5,418.8 459.5,417.5 457.5,417.5 457.5,419.5 
			458.8,419.5 458.8,420.5 457.5,420.5 457.5,422.5 459.5,422.5 459.5,421.2 460.5,421.2 460.5,422.5 462.5,422.5 462.5,420.5 
			461.2,420.5 461.2,419.5 		"/>
		<polygon class="st1" points="142.5,459.5 142.5,457.5 140.5,457.5 140.5,458.8 139.5,458.8 139.5,457.5 137.5,457.5 137.5,459.5 
			138.8,459.5 138.8,460.5 137.5,460.5 137.5,462.5 139.5,462.5 139.5,461.2 140.5,461.2 140.5,462.5 142.5,462.5 142.5,460.5 
			141.2,460.5 141.2,459.5 		"/>
		<polygon class="st1" points="462.5,459.5 462.5,457.5 460.5,457.5 460.5,458.8 459.5,458.8 459.5,457.5 457.5,457.5 457.5,459.5 
			458.8,459.5 458.8,460.5 457.5,460.5 457.5,462.5 459.5,462.5 459.5,461.2 460.5,461.2 460.5,462.5 462.5,462.5 462.5,460.5 
			461.2,460.5 461.2,459.5 		"/>
		<polygon class="st1" points="362.5,519.5 362.5,517.5 360.5,517.5 360.5,518.8 359.5,518.8 359.5,517.5 357.5,517.5 357.5,519.5 
			358.8,519.5 358.8,520.5 357.5,520.5 357.5,522.5 359.5,522.5 359.5,521.2 360.5,521.2 360.5,522.5 362.5,522.5 362.5,520.5 
			361.2,520.5 361.2,519.5 		"/>
		<polygon class="st1" points="402.5,519.5 402.5,517.5 400.5,517.5 400.5,518.8 399.5,518.8 399.5,517.5 397.5,517.5 397.5,519.5 
			398.8,519.5 398.8,520.5 397.5,520.5 397.5,522.5 399.5,522.5 399.5,521.2 400.5,521.2 400.5,522.5 402.5,522.5 402.5,520.5 
			401.2,520.5 401.2,519.5 		"/>
		<polygon class="st1" points="442.5,519.5 442.5,517.5 440.5,517.5 440.5,518.8 439.5,518.8 439.5,517.5 437.5,517.5 437.5,519.5 
			438.8,519.5 438.8,520.5 437.5,520.5 437.5,522.5 439.5,522.5 439.5,521.2 440.5,521.2 440.5,522.5 442.5,522.5 442.5,520.5 
			441.2,520.5 441.2,519.5 		"/>
		<polygon class="st1" points="342.5,499.5 342.5,497.5 340.5,497.5 340.5,498.8 339.5,498.8 339.5,497.5 337.5,497.5 337.5,499.5 
			338.8,499.5 338.8,500.5 337.5,500.5 337.5,502.5 339.5,502.5 339.5,501.2 340.5,501.2 340.5,502.5 342.5,502.5 342.5,500.5 
			341.2,500.5 341.2,499.5 		"/>
		<polygon class="st1" points="382.5,499.5 382.5,497.5 380.5,497.5 380.5,498.8 379.5,498.8 379.5,497.5 377.5,497.5 377.5,499.5 
			378.8,499.5 378.8,500.5 377.5,500.5 377.5,502.5 379.5,502.5 379.5,501.2 380.5,501.2 380.5,502.5 382.5,502.5 382.5,500.5 
			381.2,500.5 381.2,499.5 		"/>
		<polygon class="st1" points="422.5,499.5 422.5,497.5 420.5,497.5 420.5,498.8 419.5,498.8 419.5,497.5 417.5,497.5 417.5,499.5 
			418.8,499.5 418.8,500.5 417.5,500.5 417.5,502.5 419.5,502.5 419.5,501.2 420.5,501.2 420.5,502.5 422.5,502.5 422.5,500.5 
			421.2,500.5 421.2,499.5 		"/>
		<polygon class="st1" points="462.5,499.5 462.5,497.5 460.5,497.5 460.5,498.8 459.5,498.8 459.5,497.5 457.5,497.5 457.5,499.5 
			458.8,499.5 458.8,500.5 457.5,500.5 457.5,502.5 459.5,502.5 459.5,501.2 460.5,501.2 460.5,502.5 462.5,502.5 462.5,500.5 
			461.2,500.5 461.2,499.5 		"/>
		<polygon class="st1" points="382.5,539.5 382.5,537.5 380.5,537.5 380.5,538.8 379.5,538.8 379.5,537.5 377.5,537.5 377.5,539.5 
			378.8,539.5 378.8,540.5 377.5,540.5 377.5,542.5 379.5,542.5 379.5,541.2 380.5,541.2 380.5,542.5 382.5,542.5 382.5,540.5 
			381.2,540.5 381.2,539.5 		"/>
		<polygon class="st1" points="422.5,539.5 422.5,537.5 420.5,537.5 420.5,538.8 419.5,538.8 419.5,537.5 417.5,537.5 417.5,539.5 
			418.8,539.5 418.8,540.5 417.5,540.5 417.5,542.5 419.5,542.5 419.5,541.2 420.5,541.2 420.5,542.5 422.5,542.5 422.5,540.5 
			421.2,540.5 421.2,539.5 		"/>
		<polygon class="st1" points="462.5,539.5 462.5,537.5 460.5,537.5 460.5,538.8 459.5,538.8 459.5,537.5 457.5,537.5 457.5,539.5 
			458.8,539.5 458.8,540.5 457.5,540.5 457.5,542.5 459.5,542.5 459.5,541.2 460.5,541.2 460.5,542.5 462.5,542.5 462.5,540.5 
			461.2,540.5 461.2,539.5 		"/>
		<polygon class="st1" points="482.5,159.5 482.5,157.5 480.5,157.5 480.5,158.8 479.5,158.8 479.5,157.5 477.5,157.5 477.5,159.5 
			478.8,159.5 478.8,160.5 477.5,160.5 477.5,162.5 479.5,162.5 479.5,161.2 480.5,161.2 480.5,162.5 482.5,162.5 482.5,160.5 
			481.2,160.5 481.2,159.5 		"/>
		<polygon class="st1" points="482.5,199.5 482.5,197.5 480.5,197.5 480.5,198.8 479.5,198.8 479.5,197.5 477.5,197.5 477.5,199.5 
			478.8,199.5 478.8,200.5 477.5,200.5 477.5,202.5 479.5,202.5 479.5,201.2 480.5,201.2 480.5,202.5 482.5,202.5 482.5,200.5 
			481.2,200.5 481.2,199.5 		"/>
		<polygon class="st1" points="522.5,199.5 522.5,197.5 520.5,197.5 520.5,198.8 519.5,198.8 519.5,197.5 517.5,197.5 517.5,199.5 
			518.8,199.5 518.8,200.5 517.5,200.5 517.5,202.5 519.5,202.5 519.5,201.2 520.5,201.2 520.5,202.5 522.5,202.5 522.5,200.5 
			521.2,200.5 521.2,199.5 		"/>
		<polygon class="st1" points="482.5,239.5 482.5,237.5 480.5,237.5 480.5,238.8 479.5,238.8 479.5,237.5 477.5,237.5 477.5,239.5 
			478.8,239.5 478.8,240.5 477.5,240.5 477.5,242.5 479.5,242.5 479.5,241.2 480.5,241.2 480.5,242.5 482.5,242.5 482.5,240.5 
			481.2,240.5 481.2,239.5 		"/>
		<polygon class="st1" points="522.5,239.5 522.5,237.5 520.5,237.5 520.5,238.8 519.5,238.8 519.5,237.5 517.5,237.5 517.5,239.5 
			518.8,239.5 518.8,240.5 517.5,240.5 517.5,242.5 519.5,242.5 519.5,241.2 520.5,241.2 520.5,242.5 522.5,242.5 522.5,240.5 
			521.2,240.5 521.2,239.5 		"/>
		<polygon class="st1" points="482.5,279.5 482.5,277.5 480.5,277.5 480.5,278.8 479.5,278.8 479.5,277.5 477.5,277.5 477.5,279.5 
			478.8,279.5 478.8,280.5 477.5,280.5 477.5,282.5 479.5,282.5 479.5,281.2 480.5,281.2 480.5,282.5 482.5,282.5 482.5,280.5 
			481.2,280.5 481.2,279.5 		"/>
		<polygon class="st1" points="522.5,279.5 522.5,277.5 520.5,277.5 520.5,278.8 519.5,278.8 519.5,277.5 517.5,277.5 517.5,279.5 
			518.8,279.5 518.8,280.5 517.5,280.5 517.5,282.5 519.5,282.5 519.5,281.2 520.5,281.2 520.5,282.5 522.5,282.5 522.5,280.5 
			521.2,280.5 521.2,279.5 		"/>
		<polygon class="st1" points="482.5,319.5 482.5,317.5 480.5,317.5 480.5,318.8 479.5,318.8 479.5,317.5 477.5,317.5 477.5,319.5 
			478.8,319.5 478.8,320.5 477.5,320.5 477.5,322.5 479.5,322.5 479.5,321.2 480.5,321.2 480.5,322.5 482.5,322.5 482.5,320.5 
			481.2,320.5 481.2,319.5 		"/>
		<polygon class="st1" points="522.5,319.5 522.5,317.5 520.5,317.5 520.5,318.8 519.5,318.8 519.5,317.5 517.5,317.5 517.5,319.5 
			518.8,319.5 518.8,320.5 517.5,320.5 517.5,322.5 519.5,322.5 519.5,321.2 520.5,321.2 520.5,322.5 522.5,322.5 522.5,320.5 
			521.2,320.5 521.2,319.5 		"/>
		<polygon class="st1" points="482.5,359.5 482.5,357.5 480.5,357.5 480.5,358.8 479.5,358.8 479.5,357.5 477.5,357.5 477.5,359.5 
			478.8,359.5 478.8,360.5 477.5,360.5 477.5,362.5 479.5,362.5 479.5,361.2 480.5,361.2 480.5,362.5 482.5,362.5 482.5,360.5 
			481.2,360.5 481.2,359.5 		"/>
		<polygon class="st1" points="522.5,359.5 522.5,357.5 520.5,357.5 520.5,358.8 519.5,358.8 519.5,357.5 517.5,357.5 517.5,359.5 
			518.8,359.5 518.8,360.5 517.5,360.5 517.5,362.5 519.5,362.5 519.5,361.2 520.5,361.2 520.5,362.5 522.5,362.5 522.5,360.5 
			521.2,360.5 521.2,359.5 		"/>
		<polygon class="st1" points="482.5,399.5 482.5,397.5 480.5,397.5 480.5,398.8 479.5,398.8 479.5,397.5 477.5,397.5 477.5,399.5 
			478.8,399.5 478.8,400.5 477.5,400.5 477.5,402.5 479.5,402.5 479.5,401.2 480.5,401.2 480.5,402.5 482.5,402.5 482.5,400.5 
			481.2,400.5 481.2,399.5 		"/>
		<polygon class="st1" points="522.5,399.5 522.5,397.5 520.5,397.5 520.5,398.8 519.5,398.8 519.5,397.5 517.5,397.5 517.5,399.5 
			518.8,399.5 518.8,400.5 517.5,400.5 517.5,402.5 519.5,402.5 519.5,401.2 520.5,401.2 520.5,402.5 522.5,402.5 522.5,400.5 
			521.2,400.5 521.2,399.5 		"/>
		<polygon class="st1" points="482.5,439.5 482.5,437.5 480.5,437.5 480.5,438.8 479.5,438.8 479.5,437.5 477.5,437.5 477.5,439.5 
			478.8,439.5 478.8,440.5 477.5,440.5 477.5,442.5 479.5,442.5 479.5,441.2 480.5,441.2 480.5,442.5 482.5,442.5 482.5,440.5 
			481.2,440.5 481.2,439.5 		"/>
		<polygon class="st1" points="522.5,439.5 522.5,437.5 520.5,437.5 520.5,438.8 519.5,438.8 519.5,437.5 517.5,437.5 517.5,439.5 
			518.8,439.5 518.8,440.5 517.5,440.5 517.5,442.5 519.5,442.5 519.5,441.2 520.5,441.2 520.5,442.5 522.5,442.5 522.5,440.5 
			521.2,440.5 521.2,439.5 		"/>
		<polygon class="st1" points="502.5,179.5 502.5,177.5 500.5,177.5 500.5,178.8 499.5,178.8 499.5,177.5 497.5,177.5 497.5,179.5 
			498.8,179.5 498.8,180.5 497.5,180.5 497.5,182.5 499.5,182.5 499.5,181.2 500.5,181.2 500.5,182.5 502.5,182.5 502.5,180.5 
			501.2,180.5 501.2,179.5 		"/>
		<polygon class="st1" points="502.5,219.5 502.5,217.5 500.5,217.5 500.5,218.8 499.5,218.8 499.5,217.5 497.5,217.5 497.5,219.5 
			498.8,219.5 498.8,220.5 497.5,220.5 497.5,222.5 499.5,222.5 499.5,221.2 500.5,221.2 500.5,222.5 502.5,222.5 502.5,220.5 
			501.2,220.5 501.2,219.5 		"/>
		<polygon class="st1" points="542.5,219.5 542.5,217.5 540.5,217.5 540.5,218.8 539.5,218.8 539.5,217.5 537.5,217.5 537.5,219.5 
			538.8,219.5 538.8,220.5 537.5,220.5 537.5,222.5 539.5,222.5 539.5,221.2 540.5,221.2 540.5,222.5 542.5,222.5 542.5,220.5 
			541.2,220.5 541.2,219.5 		"/>
		<polygon class="st1" points="502.5,259.5 502.5,257.5 500.5,257.5 500.5,258.8 499.5,258.8 499.5,257.5 497.5,257.5 497.5,259.5 
			498.8,259.5 498.8,260.5 497.5,260.5 497.5,262.5 499.5,262.5 499.5,261.2 500.5,261.2 500.5,262.5 502.5,262.5 502.5,260.5 
			501.2,260.5 501.2,259.5 		"/>
		<polygon class="st1" points="542.5,259.5 542.5,257.5 540.5,257.5 540.5,258.8 539.5,258.8 539.5,257.5 537.5,257.5 537.5,259.5 
			538.8,259.5 538.8,260.5 537.5,260.5 537.5,262.5 539.5,262.5 539.5,261.2 540.5,261.2 540.5,262.5 542.5,262.5 542.5,260.5 
			541.2,260.5 541.2,259.5 		"/>
		<polygon class="st1" points="502.5,299.5 502.5,297.5 500.5,297.5 500.5,298.8 499.5,298.8 499.5,297.5 497.5,297.5 497.5,299.5 
			498.8,299.5 498.8,300.5 497.5,300.5 497.5,302.5 499.5,302.5 499.5,301.2 500.5,301.2 500.5,302.5 502.5,302.5 502.5,300.5 
			501.2,300.5 501.2,299.5 		"/>
		<polygon class="st1" points="542.5,299.5 542.5,297.5 540.5,297.5 540.5,298.8 539.5,298.8 539.5,297.5 537.5,297.5 537.5,299.5 
			538.8,299.5 538.8,300.5 537.5,300.5 537.5,302.5 539.5,302.5 539.5,301.2 540.5,301.2 540.5,302.5 542.5,302.5 542.5,300.5 
			541.2,300.5 541.2,299.5 		"/>
		<polygon class="st1" points="502.5,339.5 502.5,337.5 500.5,337.5 500.5,338.8 499.5,338.8 499.5,337.5 497.5,337.5 497.5,339.5 
			498.8,339.5 498.8,340.5 497.5,340.5 497.5,342.5 499.5,342.5 499.5,341.2 500.5,341.2 500.5,342.5 502.5,342.5 502.5,340.5 
			501.2,340.5 501.2,339.5 		"/>
		<polygon class="st1" points="542.5,339.5 542.5,337.5 540.5,337.5 540.5,338.8 539.5,338.8 539.5,337.5 537.5,337.5 537.5,339.5 
			538.8,339.5 538.8,340.5 537.5,340.5 537.5,342.5 539.5,342.5 539.5,341.2 540.5,341.2 540.5,342.5 542.5,342.5 542.5,340.5 
			541.2,340.5 541.2,339.5 		"/>
		<polygon class="st1" points="502.5,379.5 502.5,377.5 500.5,377.5 500.5,378.8 499.5,378.8 499.5,377.5 497.5,377.5 497.5,379.5 
			498.8,379.5 498.8,380.5 497.5,380.5 497.5,382.5 499.5,382.5 499.5,381.2 500.5,381.2 500.5,382.5 502.5,382.5 502.5,380.5 
			501.2,380.5 501.2,379.5 		"/>
		<polygon class="st1" points="542.5,379.5 542.5,377.5 540.5,377.5 540.5,378.8 539.5,378.8 539.5,377.5 537.5,377.5 537.5,379.5 
			538.8,379.5 538.8,380.5 537.5,380.5 537.5,382.5 539.5,382.5 539.5,381.2 540.5,381.2 540.5,382.5 542.5,382.5 542.5,380.5 
			541.2,380.5 541.2,379.5 		"/>
		<polygon class="st1" points="502.5,419.5 502.5,417.5 500.5,417.5 500.5,418.8 499.5,418.8 499.5,417.5 497.5,417.5 497.5,419.5 
			498.8,419.5 498.8,420.5 497.5,420.5 497.5,422.5 499.5,422.5 499.5,421.2 500.5,421.2 500.5,422.5 502.5,422.5 502.5,420.5 
			501.2,420.5 501.2,419.5 		"/>
		<polygon class="st1" points="542.5,419.5 542.5,417.5 540.5,417.5 540.5,418.8 539.5,418.8 539.5,417.5 537.5,417.5 537.5,419.5 
			538.8,419.5 538.8,420.5 537.5,420.5 537.5,422.5 539.5,422.5 539.5,421.2 540.5,421.2 540.5,422.5 542.5,422.5 542.5,420.5 
			541.2,420.5 541.2,419.5 		"/>
		<polygon class="st1" points="502.5,459.5 502.5,457.5 500.5,457.5 500.5,458.8 499.5,458.8 499.5,457.5 497.5,457.5 497.5,459.5 
			498.8,459.5 498.8,460.5 497.5,460.5 497.5,462.5 499.5,462.5 499.5,461.2 500.5,461.2 500.5,462.5 502.5,462.5 502.5,460.5 
			501.2,460.5 501.2,459.5 		"/>
		<polygon class="st1" points="542.5,459.5 542.5,457.5 540.5,457.5 540.5,458.8 539.5,458.8 539.5,457.5 537.5,457.5 537.5,459.5 
			538.8,459.5 538.8,460.5 537.5,460.5 537.5,462.5 539.5,462.5 539.5,461.2 540.5,461.2 540.5,462.5 542.5,462.5 542.5,460.5 
			541.2,460.5 541.2,459.5 		"/>
		<polygon class="st1" points="482.5,479.5 482.5,477.5 480.5,477.5 480.5,478.8 479.5,478.8 479.5,477.5 477.5,477.5 477.5,479.5 
			478.8,479.5 478.8,480.5 477.5,480.5 477.5,482.5 479.5,482.5 479.5,481.2 480.5,481.2 480.5,482.5 482.5,482.5 482.5,480.5 
			481.2,480.5 481.2,479.5 		"/>
		<polygon class="st1" points="522.5,479.5 522.5,477.5 520.5,477.5 520.5,478.8 519.5,478.8 519.5,477.5 517.5,477.5 517.5,479.5 
			518.8,479.5 518.8,480.5 517.5,480.5 517.5,482.5 519.5,482.5 519.5,481.2 520.5,481.2 520.5,482.5 522.5,482.5 522.5,480.5 
			521.2,480.5 521.2,479.5 		"/>
		<polygon class="st1" points="482.5,519.5 482.5,517.5 480.5,517.5 480.5,518.8 479.5,518.8 479.5,517.5 477.5,517.5 477.5,519.5 
			478.8,519.5 478.8,520.5 477.5,520.5 477.5,522.5 479.5,522.5 479.5,521.2 480.5,521.2 480.5,522.5 482.5,522.5 482.5,520.5 
			481.2,520.5 481.2,519.5 		"/>
		<polygon class="st1" points="522.5,519.5 522.5,517.5 520.5,517.5 520.5,518.8 519.5,518.8 519.5,517.5 517.5,517.5 517.5,519.5 
			518.8,519.5 518.8,520.5 517.5,520.5 517.5,522.5 519.5,522.5 519.5,521.2 520.5,521.2 520.5,522.5 522.5,522.5 522.5,520.5 
			521.2,520.5 521.2,519.5 		"/>
		<polygon class="st1" points="502.5,499.5 502.5,497.5 500.5,497.5 500.5,498.8 499.5,498.8 499.5,497.5 497.5,497.5 497.5,499.5 
			498.8,499.5 498.8,500.5 497.5,500.5 497.5,502.5 499.5,502.5 499.5,501.2 500.5,501.2 500.5,502.5 502.5,502.5 502.5,500.5 
			501.2,500.5 501.2,499.5 		"/>
		<polygon class="st1" points="542.5,499.5 542.5,497.5 540.5,497.5 540.5,498.8 539.5,498.8 539.5,497.5 537.5,497.5 537.5,499.5 
			538.8,499.5 538.8,500.5 537.5,500.5 537.5,502.5 539.5,502.5 539.5,501.2 540.5,501.2 540.5,502.5 542.5,502.5 542.5,500.5 
			541.2,500.5 541.2,499.5 		"/>
		<polygon class="st1" points="502.5,539.5 502.5,537.5 500.5,537.5 500.5,538.8 499.5,538.8 499.5,537.5 497.5,537.5 497.5,539.5 
			498.8,539.5 498.8,540.5 497.5,540.5 497.5,542.5 499.5,542.5 499.5,541.2 500.5,541.2 500.5,542.5 502.5,542.5 502.5,540.5 
			501.2,540.5 501.2,539.5 		"/>
		<polygon class="st1" points="542.5,539.5 542.5,537.5 540.5,537.5 540.5,538.8 539.5,538.8 539.5,537.5 537.5,537.5 537.5,539.5 
			538.8,539.5 538.8,540.5 537.5,540.5 537.5,542.5 539.5,542.5 539.5,541.2 540.5,541.2 540.5,542.5 542.5,542.5 542.5,540.5 
			541.2,540.5 541.2,539.5 		"/>
	</g>
</g>
<g id="Layer_1">
	<g>
		<rect x="160" y="260.1" class="st2" width="160" height="219.9"/>
		<path class="st3" d="M295,340h-50.4c-2.8,0-5-2.2-5-5l0,0c0-2.8,2.2-5,5-5H295c2.8,0,5,2.2,5,5l0,0C300,337.7,297.8,340,295,340z"
			/>
		<path class="st3" d="M295,379.9H185c-2.8,0-5-2.2-5-5v0c0-2.8,2.2-5,5-5h110c2.8,0,5,2.2,5,5v0C300,377.7,297.8,379.9,295,379.9z"
			/>
		<path class="st3" d="M295,399.9H185c-2.8,0-5-2.2-5-5l0,0c0-2.8,2.2-5,5-5h110c2.8,0,5,2.2,5,5l0,0
			C300,397.7,297.8,399.9,295,399.9z"/>
		<path class="st3" d="M224.6,419.9H185c-2.8,0-5-2.2-5-5l0,0c0-2.8,2.2-5,5-5h39.6c2.8,0,5,2.2,5,5l0,0
			C229.6,417.7,227.3,419.9,224.6,419.9z"/>
		<rect x="160" y="260" class="st4" width="160" height="50"/>
		<g>
			<path class="st2" d="M225,280h-10c-2.8,0-5-2.2-5-5l0,0c0-2.8,2.2-5,5-5h10c2.8,0,5,2.2,5,5l0,0C230,277.8,227.8,280,225,280z"/>
			<path class="st2" d="M245,300h-30c-2.8,0-5-2.2-5-5l0,0c0-2.8,2.2-5,5-5h30c2.8,0,5,2.2,5,5l0,0C250,297.8,247.8,300,245,300z"/>
			<path class="st2" d="M195,300h-20c-2.8,0-5-2.2-5-5v-20c0-2.8,2.2-5,5-5h20c2.8,0,5,2.2,5,5v20C200,297.8,197.8,300,195,300z"/>
		</g>
	</g>
	<path class="st1" d="M410,370l-20,20v30h-40v40h70c5.5,0,10-4.5,10-10v-20v-10v-30L410,370z"/>
	<path class="st5" d="M250,140h-70c-5.5,0-10,4.5-10,10v20v10v30l20,20l20-20v-30h40V140z"/>
	<rect x="270" y="310" class="st6" width="50" height="40"/>
	<rect x="270" y="260" class="st7" width="50" height="50"/>
	<path class="st3" d="M295,360H185c-2.8,0-5-2.2-5-5l0,0c0-2.8,2.2-5,5-5h110c2.8,0,5,2.2,5,5l0,0C300,357.7,297.8,360,295,360z"/>
	<rect x="270" y="330" class="st8" width="20" height="10"/>
	<g>
		<rect x="280" y="120.1" class="st9" width="160" height="220"/>
		<path class="st3" d="M415,220H305c-2.8,0-5-2.2-5-5l0,0c0-2.8,2.2-5,5-5h110c2.8,0,5,2.2,5,5l0,0C420,217.8,417.8,220,415,220z"/>
		<path class="st3" d="M385.4,200H335c-2.8,0-5-2.2-5-5l0,0c0-2.8,2.2-5,5-5h50.4c2.8,0,5,2.2,5,5l0,0
			C390.4,197.8,388.2,200,385.4,200z"/>
		<path class="st3" d="M415,240H305c-2.8,0-5-2.2-5-5l0,0c0-2.8,2.2-5,5-5h110c2.8,0,5,2.2,5,5l0,0C420,237.8,417.8,240,415,240z"/>
		<path class="st3" d="M365,260h-60c-2.8,0-5-2.2-5-5l0,0c0-2.8,2.2-5,5-5h60c2.8,0,5,2.2,5,5l0,0C370,257.8,367.8,260,365,260z"/>
		<path class="st3" d="M394.6,280H355c-2.8,0-5-2.2-5-5l0,0c0-2.8,2.2-5,5-5h39.6c2.8,0,5,2.2,5,5l0,0
			C399.6,277.8,397.3,280,394.6,280z"/>
		<path class="st3" d="M335,280L335,280c-2.8,0-5-2.2-5-5l0,0c0-2.8,2.2-5,5-5l0,0c2.8,0,5,2.2,5,5l0,0C340,277.8,337.8,280,335,280
			z"/>
		<path class="st3" d="M394.6,300H355c-2.8,0-5-2.2-5-5l0,0c0-2.8,2.2-5,5-5h39.6c2.8,0,5,2.2,5,5l0,0
			C399.6,297.8,397.3,300,394.6,300z"/>
		<path class="st3" d="M335,300L335,300c-2.8,0-5-2.2-5-5l0,0c0-2.8,2.2-5,5-5l0,0c2.8,0,5,2.2,5,5l0,0C340,297.8,337.8,300,335,300
			z"/>
		<path class="st3" d="M394.6,320H355c-2.8,0-5-2.2-5-5l0,0c0-2.8,2.2-5,5-5h39.6c2.8,0,5,2.2,5,5l0,0
			C399.6,317.8,397.3,320,394.6,320z"/>
		<path class="st3" d="M335,320L335,320c-2.8,0-5-2.2-5-5l0,0c0-2.8,2.2-5,5-5l0,0c2.8,0,5,2.2,5,5l0,0C340,317.8,337.8,320,335,320
			z"/>
		<rect x="280" y="120" class="st10" width="160" height="50"/>
		<g>
			<path class="st9" d="M345,140h-10c-2.8,0-5-2.2-5-5v0c0-2.8,2.2-5,5-5h10c2.8,0,5,2.2,5,5v0C350,137.8,347.8,140,345,140z"/>
			<path class="st9" d="M365,160h-30c-2.8,0-5-2.2-5-5l0,0c0-2.8,2.2-5,5-5h30c2.8,0,5,2.2,5,5l0,0C370,157.8,367.8,160,365,160z"/>
			<path class="st9" d="M315,160h-20c-2.8,0-5-2.2-5-5v-20c0-2.8,2.2-5,5-5h20c2.8,0,5,2.2,5,5v20C320,157.8,317.8,160,315,160z"/>
		</g>
	</g>
</g>
<g id="Layer_6" class="st11">
	<g class="st12">
		<rect x="160" y="120" class="st13" width="360" height="360"/>
		<rect x="180" y="100" class="st13" width="320" height="400"/>
		<rect x="180" y="100" transform="matrix(6.123234e-17 -1 1 6.123234e-17 40 640)" class="st13" width="320" height="400"/>
		<circle class="st13" cx="340" cy="300" r="200"/>
	</g>
	<g class="st12">
		<rect x="-3040" y="120" class="st13" width="360" height="360"/>
		<rect x="-3020" y="100" class="st13" width="320" height="400"/>
		<rect x="-3020" y="100" transform="matrix(6.123234e-17 -1 1 6.123234e-17 -3160 -2560)" class="st13" width="320" height="400"/>
		<circle class="st13" cx="-2860" cy="300" r="200"/>
	</g>
	<g class="st12">
		<rect x="-2240" y="120" class="st13" width="360" height="360"/>
		<rect x="-2220" y="100" class="st13" width="320" height="400"/>
		<rect x="-2220" y="100" transform="matrix(6.123234e-17 -1 1 6.123234e-17 -2360 -1760)" class="st13" width="320" height="400"/>
		<circle class="st13" cx="-2060" cy="300" r="200"/>
	</g>
	<g class="st12">
		<rect x="-1440" y="120" class="st13" width="360" height="360"/>
		<rect x="-1420" y="100" class="st13" width="320" height="400"/>
		<rect x="-1420" y="100" transform="matrix(6.123234e-17 -1 1 6.123234e-17 -1560 -960)" class="st13" width="320" height="400"/>
		<circle class="st13" cx="-1260" cy="300" r="200"/>
	</g>
	<g class="st12">
		<rect x="-640" y="120" class="st13" width="360" height="360"/>
		<rect x="-620" y="100" class="st13" width="320" height="400"/>
		<rect x="-620" y="100" transform="matrix(6.123234e-17 -1 1 6.123234e-17 -760 -160)" class="st13" width="320" height="400"/>
		<circle class="st13" cx="-460" cy="300" r="200"/>
	</g>
	<g class="st12">
		<rect x="160" y="120" class="st13" width="360" height="360"/>
		<rect x="180" y="100" class="st13" width="320" height="400"/>
		<rect x="180" y="100" transform="matrix(6.123234e-17 -1 1 6.123234e-17 40 640)" class="st13" width="320" height="400"/>
		<circle class="st13" cx="340" cy="300" r="200"/>
	</g>
	<g class="st12">
		<rect x="960" y="120" class="st13" width="360" height="360"/>
		<rect x="980" y="100" class="st13" width="320" height="400"/>
		<rect x="980" y="100" transform="matrix(6.123234e-17 -1 1 6.123234e-17 840 1440)" class="st13" width="320" height="400"/>
		<circle class="st13" cx="1140" cy="300" r="200"/>
	</g>
	<g class="st12">
		<rect x="1760" y="120" class="st13" width="360" height="360"/>
		<rect x="1780" y="100" class="st13" width="320" height="400"/>
		<rect x="1780" y="100" transform="matrix(6.123234e-17 -1 1 6.123234e-17 1640 2240)" class="st13" width="320" height="400"/>
		<circle class="st13" cx="1940" cy="300" r="200"/>
	</g>
	<g class="st12">
		<rect x="1760" y="917.9" class="st13" width="360" height="360"/>
		<rect x="1780" y="897.9" class="st13" width="320" height="400"/>
		
			<rect x="1780" y="897.9" transform="matrix(6.123234e-17 -1 1 6.123234e-17 842.0566 3037.9434)" class="st13" width="320" height="400"/>
		<circle class="st13" cx="1940" cy="1097.9" r="200"/>
	</g>
	<g class="st12">
		<rect x="2560" y="120" class="st13" width="360" height="360"/>
		<rect x="2580" y="100" class="st13" width="320" height="400"/>
		<rect x="2580" y="100" transform="matrix(6.123234e-17 -1 1 6.123234e-17 2440 3040)" class="st13" width="320" height="400"/>
		<circle class="st13" cx="2740" cy="300" r="200"/>
	</g>
	<g class="st12">
		<rect x="5760" y="920" class="st13" width="360" height="360"/>
		<rect x="5780" y="900" class="st13" width="320" height="400"/>
		<rect x="5780" y="900" transform="matrix(6.123234e-17 -1 1 6.123234e-17 4840 7040)" class="st13" width="320" height="400"/>
		<circle class="st13" cx="5940" cy="1100" r="200"/>
	</g>
	<g class="st12">
		<rect x="4960" y="920" class="st13" width="360" height="360"/>
		<rect x="4980" y="900" class="st13" width="320" height="400"/>
		<rect x="4980" y="900" transform="matrix(6.123234e-17 -1 1 6.123234e-17 4040 6240)" class="st13" width="320" height="400"/>
		<circle class="st13" cx="5140" cy="1100" r="200"/>
	</g>
	<g class="st12">
		<rect x="4160" y="920" class="st13" width="360" height="360"/>
		<rect x="4180" y="900" class="st13" width="320" height="400"/>
		<rect x="4180" y="900" transform="matrix(6.123234e-17 -1 1 6.123234e-17 3240 5440)" class="st13" width="320" height="400"/>
		<circle class="st13" cx="4340" cy="1100" r="200"/>
	</g>
	<g class="st12">
		<rect x="3360" y="920" class="st13" width="360" height="360"/>
		<rect x="3380" y="900" class="st13" width="320" height="400"/>
		<rect x="3380" y="900" transform="matrix(6.123234e-17 -1 1 6.123234e-17 2440 4640)" class="st13" width="320" height="400"/>
		<circle class="st13" cx="3540" cy="1100" r="200"/>
	</g>
	<g class="st12">
		<rect x="6560" y="920" class="st13" width="360" height="360"/>
		<rect x="6580" y="900" class="st13" width="320" height="400"/>
		<rect x="6580" y="900" transform="matrix(6.123234e-17 -1 1 6.123234e-17 5640 7840)" class="st13" width="320" height="400"/>
		<circle class="st13" cx="6740" cy="1100" r="200"/>
	</g>
	<g class="st12">
		<rect x="6560" y="120" class="st13" width="360" height="360"/>
		<rect x="6580" y="100" class="st13" width="320" height="400"/>
		<rect x="6580" y="100" transform="matrix(6.123234e-17 -1 1 6.123234e-17 6440 7040)" class="st13" width="320" height="400"/>
		<circle class="st13" cx="6740" cy="300" r="200"/>
	</g>
	<g class="st12">
		<rect x="5760" y="120" class="st13" width="360" height="360"/>
		<rect x="5780" y="100" class="st13" width="320" height="400"/>
		<rect x="5780" y="100" transform="matrix(6.123234e-17 -1 1 6.123234e-17 5640 6240)" class="st13" width="320" height="400"/>
		<circle class="st13" cx="5940" cy="300" r="200"/>
	</g>
	<g class="st12">
		<rect x="4960" y="120" class="st13" width="360" height="360"/>
		<rect x="4980" y="100" class="st13" width="320" height="400"/>
		<rect x="4980" y="100" transform="matrix(6.123234e-17 -1 1 6.123234e-17 4840 5440)" class="st13" width="320" height="400"/>
		<circle class="st13" cx="5140" cy="300" r="200"/>
	</g>
	<g class="st12">
		<rect x="4160" y="120" class="st13" width="360" height="360"/>
		<rect x="4180" y="100" class="st13" width="320" height="400"/>
		<rect x="4180" y="100" transform="matrix(6.123234e-17 -1 1 6.123234e-17 4040 4640)" class="st13" width="320" height="400"/>
		<circle class="st13" cx="4340" cy="300" r="200"/>
	</g>
	<g class="st12">
		<rect x="3360" y="120" class="st13" width="360" height="360"/>
		<rect x="3380" y="100" class="st13" width="320" height="400"/>
		<rect x="3380" y="100" transform="matrix(6.123234e-17 -1 1 6.123234e-17 3240 3840)" class="st13" width="320" height="400"/>
		<circle class="st13" cx="3540" cy="300" r="200"/>
	</g>
</g>
</svg>